<svg width="36" height="28" viewBox="0 0 36 28" fill="none" xmlns="http://www.w3.org/2000/svg">
<path d="M32.4995 1.42075H23.381V4.54593H32.5355L32.4995 1.42075ZM30.5751 22.9202C29.8834 23.4851 29.0665 23.7716 28.237 23.7403C27.688 23.8108 27.133 23.7409 26.6069 23.535C26.0808 23.329 25.5949 22.9915 25.1795 22.5434C24.4116 21.4704 24.0118 20.0718 24.0644 18.6425H35.9707C36.0565 17.1542 35.9534 15.6586 35.665 14.2096C35.386 12.831 34.8978 11.53 34.2261 10.3752C33.5501 9.25498 32.677 8.33807 31.6722 7.69327C30.5543 7.01402 29.3214 6.67215 28.0752 6.69587C26.9031 6.68529 25.7411 6.96414 24.6579 7.51595C23.666 8.03126 22.7673 8.78471 22.0141 9.73239C21.263 10.699 20.6814 11.8458 20.3055 13.1014C19.9021 14.4568 19.701 15.8911 19.712 17.3348C19.6934 18.799 19.8884 20.2554 20.2875 21.6347C20.6265 22.8837 21.1646 24.0366 21.8702 25.0258C22.6002 25.997 23.4975 26.7543 24.4961 27.2423C25.6095 27.7651 26.7938 28.0209 27.9852 27.9958C29.6568 28.0601 31.3072 27.5208 32.7334 26.4443C34.1738 25.1829 35.2109 23.3403 35.665 21.2357H31.6902C31.4774 21.932 31.0858 22.5235 30.5751 22.9202ZM24.4061 13.7885C24.5461 13.2359 24.7785 12.7255 25.0882 12.2903C25.398 11.8552 25.7783 11.5048 26.2047 11.2617C26.7693 10.9485 27.3842 10.797 28.0032 10.8184C28.4504 10.7714 28.9005 10.8441 29.3227 11.0315C29.7449 11.219 30.1292 11.5168 30.4492 11.9045C31.0603 12.8264 31.4525 13.9387 31.5823 15.1183H24.1184C24.1475 14.6679 24.2138 14.2223 24.3162 13.7885H24.4061ZM14.8919 12.7246C15.8073 12.2548 16.6027 11.489 17.194 10.5081C17.7376 9.46643 18.0076 8.24368 17.9674 7.00617C18.0026 5.87765 17.8241 4.75452 17.4458 3.72584C17.128 2.83465 16.6179 2.068 15.971 1.5094C15.2851 0.928638 14.5063 0.535642 13.6869 0.356857C12.7171 0.106208 11.728 -0.012712 10.7373 0.00222742H0V27.885H10.9711C11.9723 27.8859 12.9695 27.7295 13.9387 27.4196C14.8572 27.1267 15.7275 26.6392 16.5106 25.9789C17.2691 25.331 17.8867 24.4633 18.3091 23.4521C18.7766 22.3213 19.0054 21.0636 18.9746 19.795C19.0086 18.223 18.6508 16.6759 17.9494 15.3621C17.1951 14.041 16.0763 13.1034 14.802 12.7246H14.8919ZM4.98195 4.76757H9.64015C10.0681 4.76692 10.4953 4.81141 10.9171 4.90056C11.3055 4.97149 11.6785 5.13727 12.0142 5.38817C12.3386 5.61428 12.6014 5.9536 12.7696 6.3634C12.9779 6.85483 13.0772 7.40534 13.0574 7.95924C13.0909 8.4363 13.0317 8.91634 12.8847 9.35959C12.7377 9.80285 12.5071 10.1966 12.2121 10.5081C11.5684 11.0535 10.7982 11.3258 10.0178 11.2839H4.98195V4.76757ZM13.6869 21.2579C13.5021 21.7096 13.2226 22.0922 12.8775 22.3661C12.5184 22.6414 12.1226 22.8365 11.7085 22.9424C11.2481 23.0693 10.7773 23.1289 10.3056 23.1197H4.91V15.473H10.3056C11.2315 15.423 12.1459 15.7416 12.9135 16.3817C13.2603 16.7652 13.5289 17.244 13.6976 17.7792C13.8664 18.3144 13.9304 18.8911 13.8847 19.4626C13.9333 20.0718 13.8656 20.6867 13.6869 21.2579Z" fill="url(#paint0_linear_134_3408)"/>
<defs>
<linearGradient id="paint0_linear_134_3408" x1="18" y1="0.000976562" x2="18" y2="28.001" gradientUnits="userSpaceOnUse">
<stop stop-color="white"/>
<stop offset="0.515" stop-color="#D9C5FF"/>
<stop offset="0.99" stop-color="#FED1FC"/>
</linearGradient>
</defs>
</svg>
