<svg width="35" height="35" viewBox="0 0 35 35" fill="none" xmlns="http://www.w3.org/2000/svg">
<path d="M33.6224 10.6882C33.183 9.64748 32.6425 8.65244 32.0086 7.71741C30.7515 5.85382 29.1475 4.24962 27.284 2.99237C26.3483 2.35949 25.3533 1.81883 24.3132 1.37798C22.1566 0.470024 19.8405 0.00187011 17.5006 0.000976609C15.1602 0.000806575 12.8434 0.468999 10.6868 1.37798C8.60866 2.25909 6.7198 3.53244 5.12356 5.12836C4.33201 5.92195 3.61755 6.78885 2.98976 7.71741C1.70957 9.61206 0.813812 11.7396 0.353312 13.9794C0.117874 15.138 -0.000491089 16.3173 1.53131e-06 17.4996C1.53131e-06 18.6888 0.1187 19.8741 0.353312 21.0254C0.584728 22.1522 0.92746 23.2531 1.37646 24.3122C1.81632 25.3538 2.35664 26.35 2.98976 27.2868C3.61826 28.2149 4.33267 29.0817 5.12356 29.8759C5.91819 30.6663 6.78499 31.3806 7.71264 32.0096C8.64967 32.6419 9.6457 33.182 10.6868 33.6224C11.7462 34.0712 12.8478 34.4129 13.9753 34.6422C15.1352 34.8808 16.3164 35.0007 17.5006 34.9999C18.6859 34.9999 19.8717 34.8807 21.0236 34.6422C22.1514 34.4127 23.2534 34.0711 24.3132 33.6224C25.3534 33.1823 26.3483 32.6422 27.284 32.0096C28.2128 31.3815 29.0803 30.6671 29.8748 29.8759C30.6663 29.0823 31.3808 28.2154 32.0086 27.2868C32.6421 26.3502 33.1826 25.3539 33.6224 24.3122C34.071 23.253 34.4137 22.1521 34.6456 21.0254C34.8809 19.8649 34.9996 18.6838 35 17.4996C35 16.3138 34.8791 15.1285 34.6456 13.9794C34.413 12.8515 34.0703 11.7491 33.6224 10.6882ZM17.5 2.55659C21.2822 2.55659 24.7367 3.96814 27.3704 6.28691C27.3331 6.34264 25.2054 9.58257 19.5619 11.6963C17.0085 7.00299 14.2004 3.27434 13.978 2.97732C15.1312 2.6981 16.3135 2.55686 17.5 2.55659ZM13.919 2.99014C13.919 2.99237 13.9162 2.9946 13.9162 2.9946C13.9162 2.9946 13.8984 2.99905 13.871 3.00351C13.8883 2.99905 13.9023 2.99683 13.919 2.99014ZM11.122 3.98597C11.3215 4.25178 14.0856 7.99882 16.6736 12.5962C9.49591 14.5032 3.26728 14.4274 2.87441 14.4207C3.8435 9.79154 6.95196 5.95367 11.122 3.98597ZM6.38299 27.4874C3.91326 24.7477 2.54841 21.1888 2.55286 17.5002C2.55286 17.3408 2.56122 17.1848 2.56512 17.0282C2.83094 17.0343 10.2148 17.2015 17.909 14.8983C18.3374 15.7341 18.742 16.5818 19.1222 17.4405C18.9249 17.4935 18.7288 17.5526 18.5326 17.6189C10.4683 20.2241 6.3763 27.4791 6.3763 27.4791L6.38299 27.4874ZM17.5 32.4465C13.9708 32.4465 10.728 31.2206 8.16904 29.1726C8.21737 29.2087 8.26548 29.2451 8.31338 29.2818C8.31338 29.2818 11.1778 23.0344 20.0423 19.946C20.0746 19.9343 20.1097 19.9254 20.1431 19.9153C22.2452 25.3782 23.1117 29.955 23.3346 31.2607C21.4896 32.0452 19.5049 32.4486 17.5 32.4465ZM25.8507 29.8954C25.6986 28.9937 24.9028 24.607 22.9412 19.2221C27.7666 18.4503 31.9461 19.7732 32.2554 19.8747C31.5912 24.0385 29.2049 27.6295 25.8507 29.8954ZM22.0328 16.8621C21.9247 16.6069 21.8194 16.3494 21.7085 16.0925C21.3967 15.3609 21.0655 14.6377 20.7155 13.9236C26.6175 11.5146 29.0132 8.05009 29.0411 8.00997C31.212 10.6421 32.4123 13.9402 32.441 17.3519C32.2253 17.3046 27.1675 16.2151 22.0328 16.8621Z" fill="url(#paint0_linear_134_3386)"/>
<path d="M33.6224 10.6887C33.0444 9.3203 32.2922 8.03221 31.3844 6.85645C30.6973 7.36765 29.9899 7.851 29.2639 8.30533C31.2211 10.8052 32.4069 13.9387 32.4404 17.3519C32.2247 17.3051 27.1669 16.2157 22.0322 16.8621C21.9241 16.6069 21.8188 16.3494 21.7079 16.0925C21.396 15.361 21.0649 14.6377 20.7148 13.9237C24.8097 12.2524 27.2137 10.0752 28.3132 8.88377C24.6475 11.0471 19.8616 13.1251 14.4723 14.759C11.1142 15.7777 7.85523 16.52 4.84596 16.9947C7.66186 16.8822 12.713 16.4536 17.909 14.8983C18.3373 15.7341 18.7419 16.5818 19.1221 17.4406C18.9249 17.4935 18.7287 17.5526 18.5326 17.6189C10.4683 20.2246 6.37623 27.4797 6.37623 27.4797L6.38292 27.488C3.91319 24.7483 2.54834 21.1893 2.55279 17.5007C2.55279 17.4361 2.55614 17.3731 2.55837 17.309C1.70795 17.4097 0.855024 17.4879 0.000488281 17.5436C0.00271737 18.7178 0.120859 19.8892 0.352684 21.0265C0.5841 22.1533 0.926832 23.2543 1.37583 24.3133C1.8157 25.3549 2.35602 26.3512 2.98914 27.288C3.61763 28.216 4.33204 29.0828 5.12293 29.877C5.91756 30.6674 6.78436 31.3818 7.71201 32.0108C8.64905 32.643 9.64508 33.1831 10.6862 33.6235C11.7455 34.0724 12.8472 34.414 13.9746 34.6433C15.1345 34.882 16.3157 35.0018 17.4999 35.001C18.6852 35.001 19.8711 34.8818 21.023 34.6433C22.1508 34.4138 23.2528 34.0722 24.3126 33.6235C25.3528 33.1834 26.3477 32.6433 27.2834 32.0108C28.2122 31.3826 29.0796 30.6682 29.8741 29.877C30.6657 29.0834 31.3802 28.2165 32.0079 27.288C32.6414 26.3513 33.182 25.355 33.6218 24.3133C34.0704 23.2541 34.4131 22.1532 34.6449 21.0265C34.8803 19.866 34.999 18.6849 34.9994 17.5007C34.9994 16.3149 34.8784 15.1296 34.6449 13.9805C34.4129 12.8524 34.0704 11.7498 33.6224 10.6887ZM17.4999 32.4471C14.1699 32.4498 10.9354 31.3344 8.31498 29.2796C8.34229 29.2206 11.2206 23.0204 20.0422 19.9466C20.0745 19.9349 20.1096 19.926 20.1431 19.9159C22.2451 25.3788 23.1117 29.9556 23.3346 31.2613C21.4895 32.0458 19.5049 32.4491 17.4999 32.4471ZM25.8506 29.896C25.6985 28.9943 24.9027 24.6075 22.9411 19.2227C27.7665 18.4509 31.9461 19.7738 32.2554 19.8752C31.5911 24.0391 29.2049 27.6301 25.8506 29.896Z" fill="url(#paint1_linear_134_3386)"/>
<path d="M32.1182 20.6064C31.304 24.4577 29.0064 27.7628 25.8506 29.8949C25.7136 29.1055 25.5566 28.3197 25.3797 27.5382C24.5741 28.0543 23.7337 28.514 22.8647 28.9141C23.0403 29.6924 23.1966 30.4748 23.3334 31.2608C21.4883 32.0446 19.504 32.4478 17.4993 32.4461C14.6957 32.4461 12.0821 31.6592 9.84017 30.3129C7.46468 29.7858 5.2016 28.8412 3.15625 27.5232C3.74322 28.3622 4.40077 29.1495 5.12175 29.8765C5.91638 30.6669 6.78318 31.3813 7.71083 32.0103C8.64787 32.6425 9.64389 33.1826 10.685 33.623C11.7443 34.0719 12.846 34.4135 13.9734 34.6428C15.1333 34.8815 16.3145 35.0014 17.4987 35.0006C18.6841 35.0006 19.8699 34.8813 21.0218 34.6428C22.1496 34.4133 23.2516 34.0717 24.3114 33.623C25.3516 33.183 26.3465 32.6428 27.2822 32.0103C28.211 31.3822 29.0785 30.6677 29.873 29.8765C30.6645 29.0829 31.379 28.216 32.0068 27.2875C32.6403 26.3508 33.1808 25.3545 33.6206 24.3128C34.0692 23.2536 34.4119 22.1527 34.6438 21.0261C34.8791 19.8655 34.9978 18.6844 34.9982 17.5003C34.9982 16.4102 34.8917 15.3214 34.6934 14.2598C34.1765 16.4984 33.3073 18.6406 32.1182 20.6064Z" fill="url(#paint2_linear_134_3386)"/>
<path d="M15.0459 29.3144C15.3921 29.3144 15.6728 29.0337 15.6728 28.6875C15.6728 28.3412 15.3921 28.0605 15.0459 28.0605C14.6996 28.0605 14.4189 28.3412 14.4189 28.6875C14.4189 29.0337 14.6996 29.3144 15.0459 29.3144Z" fill="url(#paint3_linear_134_3386)"/>
<path d="M18.0408 29.8717C18.1947 29.8717 18.3195 29.747 18.3195 29.5931C18.3195 29.4392 18.1947 29.3145 18.0408 29.3145C17.887 29.3145 17.7622 29.4392 17.7622 29.5931C17.7622 29.747 17.887 29.8717 18.0408 29.8717Z" fill="url(#paint4_linear_134_3386)"/>
<path d="M19.713 25.553C20.0208 25.553 20.2703 25.3035 20.2703 24.9957C20.2703 24.688 20.0208 24.4385 19.713 24.4385C19.4053 24.4385 19.1558 24.688 19.1558 24.9957C19.1558 25.3035 19.4053 25.553 19.713 25.553Z" fill="url(#paint5_linear_134_3386)"/>
<path d="M28.2113 25.9713C28.3651 25.9713 28.4899 25.8466 28.4899 25.6927C28.4899 25.5388 28.3651 25.4141 28.2113 25.4141C28.0574 25.4141 27.9326 25.5388 27.9326 25.6927C27.9326 25.8466 28.0574 25.9713 28.2113 25.9713Z" fill="url(#paint6_linear_134_3386)"/>
<path d="M29.5347 22.6269C29.6501 22.6269 29.7436 22.5334 29.7436 22.418C29.7436 22.3025 29.6501 22.209 29.5347 22.209C29.4192 22.209 29.3257 22.3025 29.3257 22.418C29.3257 22.5334 29.4192 22.6269 29.5347 22.6269Z" fill="url(#paint7_linear_134_3386)"/>
<path d="M2.08935 33.4248C2.20476 33.4248 2.29832 33.3312 2.29832 33.2158C2.29832 33.1004 2.20476 33.0068 2.08935 33.0068C1.97393 33.0068 1.88037 33.1004 1.88037 33.2158C1.88037 33.3312 1.97393 33.4248 2.08935 33.4248Z" fill="url(#paint8_linear_134_3386)"/>
<path d="M2.57663 31.8222C3.03829 31.8222 3.41254 31.4479 3.41254 30.9863C3.41254 30.5246 3.03829 30.1504 2.57663 30.1504C2.11497 30.1504 1.74072 30.5246 1.74072 30.9863C1.74072 31.4479 2.11497 31.8222 2.57663 31.8222Z" fill="url(#paint9_linear_134_3386)"/>
<path d="M6.54718 21.3736C6.81648 21.3736 7.0348 21.1553 7.0348 20.886C7.0348 20.6167 6.81648 20.3984 6.54718 20.3984C6.27788 20.3984 6.05957 20.6167 6.05957 20.886C6.05957 21.1553 6.27788 21.3736 6.54718 21.3736Z" fill="url(#paint10_linear_134_3386)"/>
<path d="M21.1063 30.15C21.3756 30.15 21.5939 29.9317 21.5939 29.6624C21.5939 29.3931 21.3756 29.1748 21.1063 29.1748C20.837 29.1748 20.6187 29.3931 20.6187 29.6624C20.6187 29.9317 20.837 30.15 21.1063 30.15Z" fill="url(#paint11_linear_134_3386)"/>
<path d="M6.61717 24.5781C6.848 24.5781 7.03513 24.391 7.03513 24.1601C7.03513 23.9293 6.848 23.7422 6.61717 23.7422C6.38634 23.7422 6.19922 23.9293 6.19922 24.1601C6.19922 24.391 6.38634 24.5781 6.61717 24.5781Z" fill="url(#paint12_linear_134_3386)"/>
<path d="M14.2793 26.8066C14.5101 26.8066 14.6972 26.6195 14.6972 26.3887C14.6972 26.1578 14.5101 25.9707 14.2793 25.9707C14.0485 25.9707 13.8613 26.1578 13.8613 26.3887C13.8613 26.6195 14.0485 26.8066 14.2793 26.8066Z" fill="url(#paint13_linear_134_3386)"/>
<path d="M11.4931 29.3144C11.724 29.3144 11.9111 29.1273 11.9111 28.8965C11.9111 28.6656 11.724 28.4785 11.4931 28.4785C11.2623 28.4785 11.0752 28.6656 11.0752 28.8965C11.0752 29.1273 11.2623 29.3144 11.4931 29.3144Z" fill="url(#paint14_linear_134_3386)"/>
<path d="M8.98567 20.1198C9.13955 20.1198 9.2643 19.995 9.2643 19.8411C9.2643 19.6872 9.13955 19.5625 8.98567 19.5625C8.83178 19.5625 8.70703 19.6872 8.70703 19.8411C8.70703 19.995 8.83178 20.1198 8.98567 20.1198Z" fill="url(#paint15_linear_134_3386)"/>
<path d="M18.1805 27.5026C18.3344 27.5026 18.4591 27.3778 18.4591 27.2239C18.4591 27.0701 18.3344 26.9453 18.1805 26.9453C18.0266 26.9453 17.9019 27.0701 17.9019 27.2239C17.9019 27.3778 18.0266 27.5026 18.1805 27.5026Z" fill="url(#paint16_linear_134_3386)"/>
<path d="M5.0843 32.5192C5.23819 32.5192 5.36294 32.3944 5.36294 32.2405C5.36294 32.0867 5.23819 31.9619 5.0843 31.9619C4.93041 31.9619 4.80566 32.0867 4.80566 32.2405C4.80566 32.3944 4.93041 32.5192 5.0843 32.5192Z" fill="url(#paint17_linear_134_3386)"/>
<defs>
<linearGradient id="paint0_linear_134_3386" x1="17.5" y1="0.000976562" x2="17.5" y2="34.9999" gradientUnits="userSpaceOnUse">
<stop stop-color="white"/>
<stop offset="0.5" stop-color="#D9C5FF"/>
<stop offset="1" stop-color="#FED1FC"/>
</linearGradient>
<linearGradient id="paint1_linear_134_3386" x1="17.4999" y1="6.85645" x2="17.4999" y2="35.0011" gradientUnits="userSpaceOnUse">
<stop stop-color="white"/>
<stop offset="0.5" stop-color="#D9C5FF"/>
<stop offset="1" stop-color="#FED1FC"/>
</linearGradient>
<linearGradient id="paint2_linear_134_3386" x1="19.0772" y1="14.2598" x2="19.0772" y2="35.0006" gradientUnits="userSpaceOnUse">
<stop stop-color="white"/>
<stop offset="0.5" stop-color="#D9C5FF"/>
<stop offset="1" stop-color="#FED1FC"/>
</linearGradient>
<linearGradient id="paint3_linear_134_3386" x1="15.0459" y1="28.0605" x2="15.0459" y2="29.3144" gradientUnits="userSpaceOnUse">
<stop stop-color="white"/>
<stop offset="0.5" stop-color="#D9C5FF"/>
<stop offset="1" stop-color="#FED1FC"/>
</linearGradient>
<linearGradient id="paint4_linear_134_3386" x1="18.0408" y1="29.3145" x2="18.0408" y2="29.8717" gradientUnits="userSpaceOnUse">
<stop stop-color="white"/>
<stop offset="0.5" stop-color="#D9C5FF"/>
<stop offset="1" stop-color="#FED1FC"/>
</linearGradient>
<linearGradient id="paint5_linear_134_3386" x1="19.713" y1="24.4385" x2="19.713" y2="25.553" gradientUnits="userSpaceOnUse">
<stop stop-color="white"/>
<stop offset="0.5" stop-color="#D9C5FF"/>
<stop offset="1" stop-color="#FED1FC"/>
</linearGradient>
<linearGradient id="paint6_linear_134_3386" x1="28.2113" y1="25.4141" x2="28.2113" y2="25.9713" gradientUnits="userSpaceOnUse">
<stop stop-color="white"/>
<stop offset="0.5" stop-color="#D9C5FF"/>
<stop offset="1" stop-color="#FED1FC"/>
</linearGradient>
<linearGradient id="paint7_linear_134_3386" x1="29.5347" y1="22.209" x2="29.5347" y2="22.6269" gradientUnits="userSpaceOnUse">
<stop stop-color="white"/>
<stop offset="0.5" stop-color="#D9C5FF"/>
<stop offset="1" stop-color="#FED1FC"/>
</linearGradient>
<linearGradient id="paint8_linear_134_3386" x1="2.08935" y1="33.0068" x2="2.08935" y2="33.4248" gradientUnits="userSpaceOnUse">
<stop stop-color="white"/>
<stop offset="0.5" stop-color="#D9C5FF"/>
<stop offset="1" stop-color="#FED1FC"/>
</linearGradient>
<linearGradient id="paint9_linear_134_3386" x1="2.57663" y1="30.1504" x2="2.57663" y2="31.8222" gradientUnits="userSpaceOnUse">
<stop stop-color="white"/>
<stop offset="0.5" stop-color="#D9C5FF"/>
<stop offset="1" stop-color="#FED1FC"/>
</linearGradient>
<linearGradient id="paint10_linear_134_3386" x1="6.54718" y1="20.3984" x2="6.54718" y2="21.3736" gradientUnits="userSpaceOnUse">
<stop stop-color="white"/>
<stop offset="0.5" stop-color="#D9C5FF"/>
<stop offset="1" stop-color="#FED1FC"/>
</linearGradient>
<linearGradient id="paint11_linear_134_3386" x1="21.1063" y1="29.1748" x2="21.1063" y2="30.15" gradientUnits="userSpaceOnUse">
<stop stop-color="white"/>
<stop offset="0.5" stop-color="#D9C5FF"/>
<stop offset="1" stop-color="#FED1FC"/>
</linearGradient>
<linearGradient id="paint12_linear_134_3386" x1="6.61717" y1="23.7422" x2="6.61717" y2="24.5781" gradientUnits="userSpaceOnUse">
<stop stop-color="white"/>
<stop offset="0.5" stop-color="#D9C5FF"/>
<stop offset="1" stop-color="#FED1FC"/>
</linearGradient>
<linearGradient id="paint13_linear_134_3386" x1="14.2793" y1="25.9707" x2="14.2793" y2="26.8066" gradientUnits="userSpaceOnUse">
<stop stop-color="white"/>
<stop offset="0.5" stop-color="#D9C5FF"/>
<stop offset="1" stop-color="#FED1FC"/>
</linearGradient>
<linearGradient id="paint14_linear_134_3386" x1="11.4931" y1="28.4785" x2="11.4931" y2="29.3144" gradientUnits="userSpaceOnUse">
<stop stop-color="white"/>
<stop offset="0.5" stop-color="#D9C5FF"/>
<stop offset="1" stop-color="#FED1FC"/>
</linearGradient>
<linearGradient id="paint15_linear_134_3386" x1="8.98567" y1="19.5625" x2="8.98567" y2="20.1198" gradientUnits="userSpaceOnUse">
<stop stop-color="white"/>
<stop offset="0.5" stop-color="#D9C5FF"/>
<stop offset="1" stop-color="#FED1FC"/>
</linearGradient>
<linearGradient id="paint16_linear_134_3386" x1="18.1805" y1="26.9453" x2="18.1805" y2="27.5026" gradientUnits="userSpaceOnUse">
<stop stop-color="white"/>
<stop offset="0.5" stop-color="#D9C5FF"/>
<stop offset="1" stop-color="#FED1FC"/>
</linearGradient>
<linearGradient id="paint17_linear_134_3386" x1="5.0843" y1="31.9619" x2="5.0843" y2="32.5192" gradientUnits="userSpaceOnUse">
<stop stop-color="white"/>
<stop offset="0.5" stop-color="#D9C5FF"/>
<stop offset="1" stop-color="#FED1FC"/>
</linearGradient>
</defs>
</svg>
