<svg width="14" height="16" viewBox="0 0 14 16" fill="none" xmlns="http://www.w3.org/2000/svg">
<path d="M0.456013 7.298C0.472814 7.288 0.495213 7.284 0.512013 7.274L11.3119 0.29248C11.9195 -0.0974922 12.9052 -0.0974922 13.5128 0.29248C13.5184 0.29648 13.5212 0.300479 13.524 0.304479C13.6711 0.391244 13.7899 0.499909 13.8722 0.622881C13.9544 0.745852 13.998 0.880164 14 1.01643L14 14.9815C13.9969 15.1202 13.9511 15.2568 13.8659 15.3816C13.7808 15.5063 13.6583 15.6162 13.5072 15.7034L13.5128 15.7074C13.2071 15.8961 12.8165 16 12.4124 16C12.0083 16 11.6177 15.8961 11.3119 15.7074L0.456013 8.7099C0.313039 8.62279 0.198227 8.51456 0.119499 8.39268C0.0407705 8.2708 0 8.13817 0 8.00395C0 7.86973 0.0407705 7.7371 0.119499 7.61522C0.198227 7.49334 0.313039 7.38511 0.456013 7.298Z" fill="url(#paint0_linear_130_2916)"/>
<defs>
<linearGradient id="paint0_linear_130_2916" x1="7" y1="0" x2="7" y2="16" gradientUnits="userSpaceOnUse">
<stop stop-color="#DF90FF"/>
<stop offset="1" stop-color="white"/>
</linearGradient>
</defs>
</svg>
