<svg width="36" height="35" viewBox="0 0 36 35" fill="none" xmlns="http://www.w3.org/2000/svg">
<path d="M27.612 6.05598C27.1848 6.05598 26.7672 6.17914 26.412 6.40989C26.0568 6.64064 25.7799 6.96862 25.6164 7.35234C25.4529 7.73607 25.4102 8.15831 25.4935 8.56567C25.5768 8.97303 25.7826 9.34721 26.0847 9.6409C26.3867 9.93459 26.7716 10.1346 27.1906 10.2156C27.6096 10.2967 28.0439 10.2551 28.4386 10.0961C28.8333 9.93718 29.1706 9.66802 29.408 9.32267C29.6453 8.97733 29.772 8.57132 29.772 8.15598C29.772 7.59902 29.5444 7.06488 29.1393 6.67105C28.7343 6.27723 28.1849 6.05598 27.612 6.05598ZM35.892 10.291C35.857 8.839 35.5773 7.40243 35.064 6.03848C34.6063 4.87146 33.894 3.81471 32.976 2.94098C32.0847 2.04397 30.9952 1.35579 29.79 0.928477C28.3908 0.414258 26.9115 0.136094 25.416 0.105976C23.508 0.000976465 22.896 0.000976562 18 0.000976562C13.104 0.000976562 12.492 0.000976465 10.584 0.105976C9.08847 0.136094 7.60922 0.414258 6.21 0.928477C5.00702 1.36011 3.91848 2.04771 3.024 2.94098C2.10137 3.80754 1.39352 4.86675 0.954 6.03848C0.425089 7.39883 0.138978 8.83699 0.108 10.291C-1.00583e-07 12.146 0 12.741 0 17.501C0 22.261 -1.00583e-07 22.856 0.108 24.711C0.138978 26.165 0.425089 27.6031 0.954 28.9635C1.39352 30.1352 2.10137 31.1944 3.024 32.061C3.91848 32.9542 5.00702 33.6418 6.21 34.0735C7.60922 34.5877 9.08847 34.8659 10.584 34.896C12.492 35.001 13.104 35.001 18 35.001C22.896 35.001 23.508 35.001 25.416 34.896C26.9115 34.8659 28.3908 34.5877 29.79 34.0735C30.9952 33.6462 32.0847 32.958 32.976 32.061C33.898 31.1905 34.611 30.1328 35.064 28.9635C35.5773 27.5995 35.857 26.163 35.892 24.711C35.892 22.856 36 22.261 36 17.501C36 12.741 36 12.146 35.892 10.291ZM32.652 24.501C32.6389 25.6118 32.432 26.7125 32.04 27.756C31.7526 28.5176 31.291 29.2057 30.69 29.7685C30.1062 30.3469 29.3998 30.7947 28.62 31.081C27.5467 31.462 26.4146 31.6632 25.272 31.676C23.472 31.7635 22.806 31.781 18.072 31.781C13.338 31.781 12.672 31.781 10.872 31.676C9.6856 31.6976 8.50427 31.52 7.38 31.151C6.63441 30.8501 5.96044 30.4034 5.4 29.8385C4.80256 29.2763 4.34672 28.5876 4.068 27.826C3.62854 26.7675 3.3848 25.6419 3.348 24.501C3.348 22.751 3.24 22.1035 3.24 17.501C3.24 12.8985 3.24 12.251 3.348 10.501C3.35607 9.36532 3.56931 8.23988 3.978 7.17598C4.29488 6.43732 4.78128 5.77888 5.4 5.25098C5.94686 4.64927 6.62272 4.17139 7.38 3.85098C8.47719 3.46605 9.63359 3.26487 10.8 3.25598C12.6 3.25598 13.266 3.15098 18 3.15098C22.734 3.15098 23.4 3.15098 25.2 3.25598C26.3426 3.26872 27.4747 3.46991 28.548 3.85098C29.366 4.14612 30.1001 4.62596 30.69 5.25098C31.2799 5.78854 31.7408 6.44576 32.04 7.17598C32.4401 8.24161 32.6471 9.36659 32.652 10.501C32.742 12.251 32.76 12.8985 32.76 17.501C32.76 22.1035 32.742 22.751 32.652 24.501ZM18 8.52348C16.1745 8.52694 14.3909 9.0564 12.8748 10.045C11.3586 11.0335 10.1779 12.4368 9.48174 14.0775C8.7856 15.7183 8.6053 17.5228 8.96363 19.2631C9.32195 21.0034 10.2028 22.6014 11.4949 23.8552C12.787 25.109 14.4324 25.9623 16.2231 26.3072C18.0139 26.6522 19.8696 26.4734 21.5558 25.7934C23.2421 25.1134 24.6832 23.9627 25.697 22.4868C26.7109 21.0108 27.252 19.2758 27.252 17.501C27.2544 16.3199 27.0166 15.15 26.5522 14.0587C26.0879 12.9673 25.4062 11.9759 24.5464 11.1416C23.6865 10.3072 22.6655 9.64641 21.542 9.1971C20.4186 8.74779 19.2148 8.51886 18 8.52348ZM18 23.3285C16.8145 23.3285 15.6556 22.9867 14.6699 22.3464C13.6842 21.706 12.9159 20.7959 12.4623 19.7311C12.0086 18.6662 11.8899 17.4945 12.1212 16.3641C12.3525 15.2337 12.9233 14.1953 13.7616 13.3803C14.5999 12.5653 15.6679 12.0103 16.8306 11.7854C17.9934 11.5606 19.1985 11.676 20.2938 12.1171C21.3891 12.5581 22.3252 13.3051 22.9838 14.2634C23.6425 15.2217 23.994 16.3484 23.994 17.501C23.994 18.2663 23.839 19.024 23.5377 19.7311C23.2365 20.4381 22.795 21.0805 22.2384 21.6216C21.6818 22.1628 21.021 22.592 20.2938 22.8849C19.5666 23.1777 18.7871 23.3285 18 23.3285Z" fill="url(#paint0_linear_134_3385)"/>
<defs>
<linearGradient id="paint0_linear_134_3385" x1="18" y1="0.000976562" x2="18" y2="35.001" gradientUnits="userSpaceOnUse">
<stop stop-color="white"/>
<stop offset="0.495" stop-color="#D9C5FF"/>
<stop offset="1" stop-color="#FED1FC"/>
</linearGradient>
</defs>
</svg>
