<svg width="35" height="38" viewBox="0 0 35 38" fill="none" xmlns="http://www.w3.org/2000/svg">
<path d="M0 12.0381H7.82688V38.0008H0V12.0381ZM29.1463 12.3426C29.0631 12.3142 28.9844 12.2836 28.8969 12.2576C28.7918 12.2319 28.686 12.2099 28.5797 12.1915C28.1175 12.0895 27.647 12.0382 27.1753 12.0381C22.6122 12.0381 19.7181 15.6186 18.7644 17.0017V12.0381H10.9375V38.0008H18.7644V23.8393C18.7644 23.8393 24.6794 14.9506 27.1753 21.4791V38.0008H35V20.4807C34.9968 18.6164 34.4203 16.806 33.3609 15.3332C32.3016 13.8605 30.8192 12.8086 29.1463 12.3426Z" fill="url(#paint0_linear_134_3405)"/>
<path d="M3.82812 8.26185C5.94234 8.26185 7.65625 6.41259 7.65625 4.13141C7.65625 1.85024 5.94234 0.000976562 3.82812 0.000976562C1.71391 0.000976562 0 1.85024 0 4.13141C0 6.41259 1.71391 8.26185 3.82812 8.26185Z" fill="white"/>
<defs>
<linearGradient id="paint0_linear_134_3405" x1="17.5" y1="12.0381" x2="17.5" y2="38.0008" gradientUnits="userSpaceOnUse">
<stop stop-color="white"/>
<stop offset="0.505" stop-color="#D9C5FF"/>
<stop offset="1" stop-color="#FED1FC"/>
</linearGradient>
</defs>
</svg>
