<svg width="70" height="67" viewBox="0 0 70 67" fill="none" xmlns="http://www.w3.org/2000/svg">
<g filter="url(#filter0_d_134_3222)">
<path fill-rule="evenodd" clip-rule="evenodd" d="M48.2763 38.4657C47.6883 38.9441 46.7838 38.9403 46.1467 38.4568L31.9251 25.6859L43.9907 40.2033C44.4322 40.8367 44.3312 41.6553 43.7349 42.1331L32.2407 51.4115C31.0392 52.3844 29.34 52.6918 27.7646 52.2252C26.181 51.7573 24.9404 50.582 24.4854 49.1182C21.7681 40.414 15.7698 21.205 12.8148 11.7203C12.3162 10.1206 12.8245 8.43765 14.1451 7.37514C15.4574 6.312 17.352 6.05053 19.0265 6.69941C28.9682 10.5478 49.1106 18.3419 58.2353 21.8738C59.7641 22.4671 60.8936 23.7363 61.2077 25.2262C61.5219 26.7161 60.9721 28.2143 59.7706 29.1873L48.2763 38.4657Z" fill="url(#paint0_linear_134_3222)"/>
</g>
<defs>
<filter id="filter0_d_134_3222" x="0.626465" y="0.347656" width="68.6685" height="66.0918" filterUnits="userSpaceOnUse" color-interpolation-filters="sRGB">
<feFlood flood-opacity="0" result="BackgroundImageFix"/>
<feColorMatrix in="SourceAlpha" type="matrix" values="0 0 0 0 0 0 0 0 0 0 0 0 0 0 0 0 0 0 127 0" result="hardAlpha"/>
<feOffset dx="-2" dy="4"/>
<feGaussianBlur stdDeviation="5"/>
<feComposite in2="hardAlpha" operator="out"/>
<feColorMatrix type="matrix" values="0 0 0 0 0 0 0 0 0 0 0 0 0 0 0 0 0 0 0.5 0"/>
<feBlend mode="normal" in2="BackgroundImageFix" result="effect1_dropShadow_134_3222"/>
<feBlend mode="normal" in="SourceGraphic" in2="effect1_dropShadow_134_3222" result="shape"/>
</filter>
<linearGradient id="paint0_linear_134_3222" x1="44.1914" y1="40.693" x2="17.5074" y2="4.85582" gradientUnits="userSpaceOnUse">
<stop stop-color="#A5ACFB"/>
<stop offset="1" stop-color="#FFD0FD"/>
</linearGradient>
</defs>
</svg>
