<svg width="15" height="16" viewBox="0 0 15 16" fill="none" xmlns="http://www.w3.org/2000/svg">
<path d="M13.8838 7.298C13.867 7.288 13.8446 7.284 13.8278 7.274L3.02792 0.29248C2.4203 -0.0974927 1.43467 -0.0974927 0.827057 0.29248C0.821457 0.29648 0.818658 0.300479 0.815858 0.304479C0.668728 0.391244 0.549902 0.499909 0.467682 0.622881C0.385463 0.745853 0.341834 0.880164 0.339844 1.01643L0.339844 14.9815C0.342983 15.1202 0.388746 15.2568 0.473901 15.3816C0.559056 15.5063 0.681526 15.6162 0.832658 15.7034L0.827057 15.7074C1.13279 15.8961 1.52339 16 1.92749 16C2.33159 16 2.72219 15.8961 3.02792 15.7074L13.8838 8.7099C14.0268 8.62279 14.1416 8.51456 14.2203 8.39268C14.2991 8.2708 14.3398 8.13817 14.3398 8.00395C14.3398 7.86973 14.2991 7.7371 14.2203 7.61522C14.1416 7.49334 14.0268 7.38511 13.8838 7.298Z" fill="url(#paint0_linear_130_2907)"/>
<defs>
<linearGradient id="paint0_linear_130_2907" x1="7.33984" y1="0" x2="7.33984" y2="16" gradientUnits="userSpaceOnUse">
<stop stop-color="white"/>
<stop offset="1" stop-color="#B38AFF"/>
</linearGradient>
</defs>
</svg>
