<svg width="166" height="64" viewBox="0 0 166 64" fill="none" xmlns="http://www.w3.org/2000/svg">
<rect x="0.5" y="0.5" width="165" height="63" rx="29.5" stroke="white"/>
<path d="M125.965 40.1888C125.718 38.8342 124.703 37.6591 122.941 36.692C122.919 36.674 122.895 36.6573 122.869 36.642L122.78 36.5989L122.751 36.5852L121.816 36.1306L121.784 36.1147L121.665 36.0579C121.621 36.0407 121.574 36.0273 121.525 36.0181C118.566 34.826 113.666 33.9908 106.169 35.7806C104.381 33.7442 104.177 32.1123 105.375 29.6121C105.588 29.1769 105.39 28.8894 104.752 28.703C103.468 28.3337 101.712 28.5223 100.465 28.7451C99.884 28.8473 99.5347 29.0701 99.4238 29.4076C98.6343 31.9077 96.3399 34.1919 94.121 36.3966L93.99 36.5261C92.6227 34.5647 92.9066 33.0453 93.859 31.1418C94.0488 30.7622 93.8993 30.5099 93.3736 30.3213C91.9055 29.8087 89.7034 30.161 88.8267 30.336C87.7147 30.5554 86.5221 32.5884 85.1901 35.0226C84.8542 35.6352 84.5653 36.1591 84.3923 36.4034C83.9808 36.9716 83.5877 37.6194 83.1711 38.3069C82.2305 39.8626 81.1706 41.6139 79.6556 42.7139C79.1046 41.89 79.9713 40.5911 80.8129 39.3308C81.8089 37.841 82.7495 36.4329 81.6661 35.534C81.4948 35.3919 81.2823 35.275 81.0416 35.1906C80.801 35.1062 80.5374 35.056 80.267 35.0431C79.9142 35.0249 79.5601 35.0639 79.234 35.1567C79.3465 34.5147 79.3515 34.0078 79.0744 33.3953C78.678 32.5214 77.6483 32.0316 76.2307 32.0577C73.0023 32.1214 70.2712 33.7487 68.5461 35.1033C67.3972 36.0125 64.8508 36.7057 62.6151 37.3137C61.7316 37.5671 60.8918 37.7944 60.1914 38.0216C59.0744 37.383 57.655 36.7386 56.1601 36.0579C51.9609 34.151 47.2023 31.9884 47.0377 29.0564C46.8026 24.7255 54.0924 21.6538 60.4551 19.4617C65.2774 17.8025 69.4699 16.7024 73.2728 16.1013C78.6142 15.2569 83.1258 15.4274 86.68 16.6058C88.6251 17.2502 89.5355 18.6514 88.9577 20.0924C87.4459 23.8369 81.1824 26.4029 75.8259 27.5575C72.5992 28.253 69.8529 28.5439 67.4274 28.4485C64.3872 28.3291 61.9046 27.2973 60.8431 26.8575C60.673 26.7789 60.4931 26.7104 60.3056 26.6529L60.2569 26.645C60.1607 26.6288 60.0599 26.6308 59.9654 26.6509C59.8708 26.6709 59.7863 26.7082 59.721 26.7586C59.5027 26.9347 59.5799 27.2132 59.6589 27.3541C60.6919 29.1803 62.8251 30.3338 65.998 30.7827C67.0364 30.9233 68.0935 30.9915 69.1525 30.9861C76.5784 30.9861 86.0535 28.0893 89.5338 25.704C91.9072 24.0789 93.6356 22.4084 94.3511 19.5276C95.0986 16.5104 92.0752 14.4137 88.9946 13.4477C81.5083 11.1101 73.0057 12.034 67.1906 13.2204C60.3879 14.608 53.35 17.1309 47.8843 20.1446C41.1454 23.8573 38.7098 27.3041 40.6415 30.4008C42.6252 33.5748 47.4627 35.5602 52.1406 37.4807C53.6523 38.1001 55.0901 38.6899 56.3852 39.299C55.9955 39.4274 55.5974 39.5581 55.1926 39.6888C51.2655 40.9763 46.811 42.4253 44.3401 44.8197C42.5462 46.5641 42.2103 48.3006 43.3424 49.9813C43.9471 50.8757 45.0221 51.4825 46.5153 51.7848C47.2921 51.9337 48.0966 52.0061 48.9039 51.9996C51.8114 51.9996 55.0112 51.2041 56.753 50.4688C59.8302 49.162 61.824 47.4073 62.6806 45.2538C63.4432 43.3378 63.2601 41.4343 62.1515 39.7354L65.9224 38.4489C64.1033 42.5401 65.4975 44.9834 67.0294 46.3311C67.5937 46.8278 68.6116 47.1266 69.7488 47.1403C70.8859 47.1539 71.9324 46.8641 72.5236 46.3709C73.6423 45.4334 74.4687 44.3367 75.2296 43.2401C75.1893 43.956 75.2397 44.6811 75.6008 45.2959C75.925 45.8493 76.4591 46.2164 77.1478 46.3573C77.8801 46.5084 78.7384 46.3811 79.5649 45.9993C83.2887 44.2754 85.8351 40.1377 87.881 36.8114C88.1716 36.3386 88.4504 35.884 88.7208 35.459C89.227 36.6846 89.9311 37.8686 90.8204 38.9899C91.0186 39.2331 91.0018 39.3399 90.7331 39.5399C90.3283 39.8399 89.7639 40.2024 89.166 40.5865C87.3552 41.7491 85.1011 43.2003 84.7988 44.4765C84.6812 44.9879 85.2019 45.4538 86.0098 45.5595C88.4403 45.8868 91.368 45.4084 93.8439 44.281C96.0947 43.2583 96.9412 41.8321 96.3634 40.0547C95.8041 38.3433 97.0806 36.2182 100.158 33.7339C100.662 35.1579 101.334 36.3091 102.261 37.3171L102.236 37.3307C99.9949 38.6546 96.9244 40.4672 97.4015 42.6662C97.4415 42.8753 97.5455 43.0765 97.7069 43.2569C97.8682 43.4373 98.0834 43.593 98.3387 43.714C98.6115 43.8386 98.9195 43.9237 99.2432 43.964C99.5669 44.0043 99.8995 43.9989 100.22 43.9481C103.154 43.531 105.363 42.6912 106.969 41.3832C108.575 40.0752 107.989 38.6251 107.448 37.5C111.647 36.7295 115.386 36.7489 118.886 37.5569C120.852 38.0114 122.261 38.758 123.074 39.7888C124.097 41.0854 123.544 42.2821 121.513 43.1583C120.89 43.4276 120.59 43.5924 120.571 43.8003C120.567 43.8486 120.58 43.8968 120.609 43.9409C120.639 43.985 120.683 44.0237 120.739 44.0538C120.974 44.1844 121.7 44.4117 123.341 43.7128C124.853 43.0708 125.739 42.1968 125.966 41.0991C126.012 40.7964 126.011 40.4914 125.965 40.1888ZM58.8224 43.0367L58.8056 43.1821C58.5436 44.8458 57.2939 46.2959 55.0851 47.5005C53.6977 48.2574 52.191 48.7222 50.8439 48.8108C49.9033 48.8722 49.2196 48.7858 48.8132 48.5528C48.5091 48.379 48.3462 48.1187 48.3092 47.7574C48.0338 44.8618 54.7458 41.9843 58.5234 41.0377C58.793 41.6873 58.8942 42.3637 58.8224 43.0367ZM76.014 34.8704C75.3925 37.2671 73.5801 41.7911 70.7314 43.5469C70.5953 43.631 70.4811 43.6606 70.429 43.6526C70.377 43.6446 70.3367 43.6026 70.2947 43.539C69.344 42.048 69.695 39.5297 71.1345 37.5512C72.2414 36.0261 73.822 35.0158 75.589 34.7101C75.6624 34.6964 75.738 34.6892 75.8141 34.6885C75.8736 34.6857 75.9328 34.6965 75.9821 34.7192C76.0029 34.7415 76.0165 34.7664 76.022 34.7925C76.0275 34.8185 76.0248 34.8451 76.014 34.8704ZM90.0377 43.6071C89.5019 43.9856 88.7679 43.9344 88.9409 43.7958L91.6687 41.8366C91.4486 42.5105 90.7986 43.0685 90.0377 43.6071ZM101.354 41.9127C101.094 41.9992 100.814 42.0528 100.526 42.0707C100.448 41.04 101.925 39.8797 103.381 39.1058C103.773 40.1808 102.971 41.3173 101.354 41.9127Z" fill="white"/>
</svg>
