<svg width="20" height="18" viewBox="0 0 20 18" fill="none" xmlns="http://www.w3.org/2000/svg">
<path d="M2.61145 1.10568C2.64346 0.997553 2.84388 0.996899 2.87665 1.10482C3.02629 1.59762 3.30379 2.32603 3.72339 2.72517C4.14301 3.12431 4.90548 3.38511 5.42108 3.52509C5.53399 3.55574 5.53467 3.74768 5.42197 3.77906C4.90738 3.92236 4.14675 4.18811 3.72998 4.58994C3.31319 4.99179 3.04084 5.72197 2.89468 6.21573C2.86267 6.32387 2.66225 6.32451 2.62948 6.21659C2.47983 5.72379 2.20235 4.99537 1.78273 4.59625C1.36312 4.19711 0.600642 3.9363 0.0850492 3.79632C-0.0278572 3.76567 -0.0285405 3.57373 0.0841524 3.54235C0.598742 3.39904 1.35937 3.13331 1.77616 2.73147C2.19294 2.32962 2.46528 1.59944 2.61145 1.10568Z" fill="url(#paint0_linear_148_2592)"/>
<path d="M17.1056 0.795681C17.1376 0.687556 17.338 0.686902 17.3708 0.794822C17.5204 1.28762 17.7979 2.01604 18.2175 2.41517C18.6371 2.81431 19.3996 3.07512 19.9152 3.21509C20.0281 3.24575 20.0288 3.43768 19.9161 3.46906C19.4015 3.61237 18.6409 3.87811 18.2241 4.27994C17.8073 4.68179 17.535 5.41198 17.3888 5.90573C17.3568 6.01387 17.1564 6.01451 17.1236 5.90659C16.974 5.41379 16.6965 4.68538 16.2769 4.28625C15.8573 3.88712 15.0948 3.6263 14.5792 3.48632C14.4663 3.45567 14.4656 3.26374 14.5783 3.23236C15.0929 3.08905 15.8535 2.82331 16.2703 2.42147C16.6871 2.01962 16.9594 1.28944 17.1056 0.795681Z" fill="url(#paint1_linear_148_2592)"/>
<path d="M9.47665 3.81222C9.55789 3.53111 10.0665 3.5294 10.1496 3.80999C10.5294 5.0912 11.2336 6.98501 12.2984 8.02272C13.3633 9.06042 15.2982 9.73849 16.6066 10.1024C16.8932 10.1821 16.8949 10.6811 16.6089 10.7627C15.303 11.1353 13.3728 11.8262 12.3151 12.8709C11.2575 13.9157 10.5663 15.8141 10.1954 17.0978C10.1142 17.3789 9.60556 17.3806 9.5224 17.1C9.14265 15.8188 8.43848 13.925 7.37363 12.8873C6.30878 11.8496 4.37385 11.1715 3.06544 10.8076C2.77892 10.7279 2.77718 10.2289 3.06316 10.1473C4.36903 9.77471 6.29927 9.08384 7.35694 8.03909C8.41462 6.99433 9.10573 5.09593 9.47665 3.81222Z" fill="url(#paint2_linear_148_2592)"/>
<defs>
<linearGradient id="paint0_linear_148_2592" x1="9.91491" y1="1.02433" x2="9.91491" y2="21.0374" gradientUnits="userSpaceOnUse">
<stop stop-color="#DF90FF"/>
<stop offset="0.19" stop-color="#7A02C3"/>
</linearGradient>
<linearGradient id="paint1_linear_148_2592" x1="24.409" y1="0.714337" x2="24.409" y2="20.7274" gradientUnits="userSpaceOnUse">
<stop stop-color="#DF90FF"/>
<stop offset="0.19" stop-color="#7A02C3"/>
</linearGradient>
<linearGradient id="paint2_linear_148_2592" x1="28.0106" y1="3.60073" x2="28.0106" y2="55.6323" gradientUnits="userSpaceOnUse">
<stop stop-color="#DF90FF"/>
<stop offset="0.19" stop-color="#7A02C3"/>
</linearGradient>
</defs>
</svg>
