<svg width="187" height="140" viewBox="0 0 187 140" fill="none" xmlns="http://www.w3.org/2000/svg">
<g clip-path="url(#clip0_124_2461)">
<mask id="path-1-inside-1_124_2461" fill="white">
<path d="M0 10C0 4.47716 4.47715 0 10 0H177C182.523 0 187 4.47715 187 10V139C187 144.523 182.523 149 177 149H10C4.47715 149 0 144.523 0 139V10Z"/>
</mask>
<path d="M0 10C0 4.47716 4.47715 0 10 0H177C182.523 0 187 4.47715 187 10V139C187 144.523 182.523 149 177 149H10C4.47715 149 0 144.523 0 139V10Z" fill="url(#paint0_linear_124_2461)"/>
<path d="M-1 10C-1 3.92487 3.92487 -1 10 -1H177C183.075 -1 188 3.92487 188 10H186C186 5.02944 181.971 1 177 1H10C5.02944 1 1 5.02944 1 10H-1ZM187 149H0H187ZM10 149C3.92487 149 -1 144.075 -1 138V10C-1 3.92487 3.92487 -1 10 -1V1C5.02944 1 1 5.02944 1 10V139C1 144.523 5.02944 149 10 149ZM177 -1C183.075 -1 188 3.92487 188 10V138C188 144.075 183.075 149 177 149C181.971 149 186 144.523 186 139V10C186 5.02944 181.971 1 177 1V-1Z" fill="#FED1FC" mask="url(#path-1-inside-1_124_2461)"/>
<rect x="84.25" y="8.25" width="19.5" height="2.5" rx="1.25" fill="url(#paint1_linear_124_2461)" stroke="#FED1FC" stroke-width="0.5"/>
<path d="M0 15H15V186H0V15Z" fill="url(#paint2_linear_124_2461)" fill-opacity="0.7"/>
<path d="M21.5 15H36.5V186H21.5V15Z" fill="url(#paint3_linear_124_2461)" fill-opacity="0.7"/>
<path d="M43 15H58V186H43V15Z" fill="url(#paint4_linear_124_2461)" fill-opacity="0.7"/>
<path d="M64.5 15H79.5V186H64.5V15Z" fill="url(#paint5_linear_124_2461)" fill-opacity="0.7"/>
<path d="M86 15H101V186H86V15Z" fill="url(#paint6_linear_124_2461)" fill-opacity="0.7"/>
<path d="M107.5 15H122.5V186H107.5V15Z" fill="url(#paint7_linear_124_2461)" fill-opacity="0.7"/>
<path d="M129 15H144V186H129V15Z" fill="url(#paint8_linear_124_2461)" fill-opacity="0.7"/>
<path d="M150.5 15H165.5V186H150.5V15Z" fill="url(#paint9_linear_124_2461)" fill-opacity="0.7"/>
<path d="M172 15H187V186H172V15Z" fill="url(#paint10_linear_124_2461)" fill-opacity="0.7"/>
</g>
<defs>
<linearGradient id="paint0_linear_124_2461" x1="93.5" y1="0" x2="93.5" y2="149" gradientUnits="userSpaceOnUse">
<stop stop-opacity="0.38"/>
<stop offset="1" stop-opacity="0"/>
</linearGradient>
<linearGradient id="paint1_linear_124_2461" x1="94" y1="8" x2="94" y2="11" gradientUnits="userSpaceOnUse">
<stop stop-opacity="0.38"/>
<stop offset="1" stop-opacity="0"/>
</linearGradient>
<linearGradient id="paint2_linear_124_2461" x1="7.5" y1="15" x2="7.5" y2="128" gradientUnits="userSpaceOnUse">
<stop stop-color="#FED1FC" stop-opacity="0.33"/>
<stop offset="1" stop-color="white" stop-opacity="0.42"/>
</linearGradient>
<linearGradient id="paint3_linear_124_2461" x1="29" y1="15" x2="29" y2="128" gradientUnits="userSpaceOnUse">
<stop stop-color="#FED1FC" stop-opacity="0.33"/>
<stop offset="1" stop-color="white" stop-opacity="0.42"/>
</linearGradient>
<linearGradient id="paint4_linear_124_2461" x1="50.5" y1="15" x2="50.5" y2="128" gradientUnits="userSpaceOnUse">
<stop stop-color="#FED1FC" stop-opacity="0.33"/>
<stop offset="1" stop-color="white" stop-opacity="0.42"/>
</linearGradient>
<linearGradient id="paint5_linear_124_2461" x1="72" y1="15" x2="72" y2="128" gradientUnits="userSpaceOnUse">
<stop stop-color="#FED1FC" stop-opacity="0.33"/>
<stop offset="1" stop-color="white" stop-opacity="0.42"/>
</linearGradient>
<linearGradient id="paint6_linear_124_2461" x1="93.5" y1="15" x2="93.5" y2="128" gradientUnits="userSpaceOnUse">
<stop stop-color="#FED1FC" stop-opacity="0.33"/>
<stop offset="1" stop-color="white" stop-opacity="0.42"/>
</linearGradient>
<linearGradient id="paint7_linear_124_2461" x1="115" y1="15" x2="115" y2="128" gradientUnits="userSpaceOnUse">
<stop stop-color="#FED1FC" stop-opacity="0.33"/>
<stop offset="1" stop-color="white" stop-opacity="0.42"/>
</linearGradient>
<linearGradient id="paint8_linear_124_2461" x1="136.5" y1="15" x2="136.5" y2="128" gradientUnits="userSpaceOnUse">
<stop stop-color="#FED1FC" stop-opacity="0.33"/>
<stop offset="1" stop-color="white" stop-opacity="0.42"/>
</linearGradient>
<linearGradient id="paint9_linear_124_2461" x1="158" y1="15" x2="158" y2="128" gradientUnits="userSpaceOnUse">
<stop stop-color="#FED1FC" stop-opacity="0.33"/>
<stop offset="1" stop-color="white" stop-opacity="0.42"/>
</linearGradient>
<linearGradient id="paint10_linear_124_2461" x1="179.5" y1="15" x2="179.5" y2="128" gradientUnits="userSpaceOnUse">
<stop stop-color="#FED1FC" stop-opacity="0.33"/>
<stop offset="1" stop-color="white" stop-opacity="0.42"/>
</linearGradient>
<clipPath id="clip0_124_2461">
<rect width="187" height="140" fill="white"/>
</clipPath>
</defs>
</svg>
